<svg width="28" height="37" viewBox="0 0 28 37" fill="none" xmlns="http://www.w3.org/2000/svg">
<path d="M22.6054 25.1729H3.36V34.8636C3.36 35.7674 2.60784 36.5 1.68 36.5C0.752163 36.5 0 35.7674 0 34.8636V2.13636C0 1.23263 0.752162 0.5 1.68 0.5H22.6054C24.8074 0.5 26.5011 1.81852 27.3478 3.46414C28.1929 5.10668 28.2828 7.21362 27.2246 9.06042L26.2193 10.8151C25.5139 12.0462 25.5139 13.6267 26.2193 14.8578L27.2246 16.6125C28.2828 18.4593 28.1929 20.5662 27.3478 22.2088C26.5011 23.8544 24.8074 25.1729 22.6054 25.1729Z" fill="white"/>
</svg>
