<svg width="36" height="37" viewBox="0 0 36 37" fill="none" xmlns="http://www.w3.org/2000/svg">
<path d="M6.22137 0.804099C6.86633 0.602712 7.53546 0.5 8.20912 0.5C11.4472 0.5 13.8462 3.35131 13.8462 6.57582L13.8462 13.8088C13.8462 17.0333 11.4472 19.8846 8.20912 19.8846C7.53545 19.8846 6.86632 19.7819 6.22137 19.5805L5.72837 19.4266C5.56003 19.374 5.39441 19.3157 5.23167 19.2519C7.80021 24.4682 12.0318 28.6998 17.2481 31.2683C17.1843 31.1056 17.126 30.94 17.0734 30.7716L16.9195 30.2786C16.7181 29.6337 16.6154 28.9645 16.6154 28.2909C16.6154 25.0528 19.4667 22.6538 22.6912 22.6538H29.9242C33.1487 22.6538 36 25.0528 36 28.2909C36 28.9646 35.8973 29.6337 35.6959 30.2786L35.542 30.7716C34.6452 33.6435 32.0802 35.7233 29.012 36.2639C27.2256 36.5787 25.3898 36.5787 23.6034 36.2639C23.5331 36.2515 23.463 36.2383 23.3933 36.2243C11.6857 33.9718 2.52809 24.8142 0.275641 13.1066C0.261657 13.0369 0.24847 12.9669 0.236091 12.8966C-0.0786977 11.1102 -0.0786967 9.27441 0.236092 7.48799C0.77675 4.41978 2.85653 1.85477 5.72837 0.958041L6.22137 0.804099Z" fill="white"/>
<path d="M20.2256 3.68226C23.7731 2.67146 27.6362 3.51692 30.3097 6.19036C32.9831 8.86381 33.8286 12.7269 32.8178 16.2745C32.6082 17.0099 33.0345 17.776 33.77 17.9855C34.5054 18.1951 35.2715 17.7687 35.481 17.0333C36.7455 12.5955 35.7063 7.67066 32.2678 4.23222C28.8294 0.79378 23.9045 -0.245426 19.4667 1.01902C18.7313 1.22857 18.305 1.99462 18.5145 2.73005C18.7241 3.46549 19.4901 3.8918 20.2256 3.68226Z" fill="white"/>
<path d="M23.6924 8.71472C24.6267 8.52864 25.8101 8.8424 26.7338 9.76618C27.6576 10.69 27.9714 11.8733 27.7853 12.8076C27.6359 13.5576 28.1228 14.2866 28.8728 14.436C29.6227 14.5854 30.3518 14.0985 30.5012 13.3486C30.8832 11.4307 30.213 9.32901 28.692 7.80804C27.171 6.28706 25.0693 5.61685 23.1515 5.99884C22.4015 6.14822 21.9146 6.87729 22.064 7.62726C22.2134 8.37723 22.9424 8.8641 23.6924 8.71472Z" fill="white"/>
</svg>
